<?xml version="1.0" encoding="UTF-8"?>
<svg xmlns="http://www.w3.org/2000/svg" viewBox="0 0 3061.42 3061.42">
  <defs>
    <style>
      .cls-1 {
        fill: #cc6b7e;
      }

      .cls-2, .cls-3 {
        fill: #f9c5be;
      }

      .cls-4 {
        fill: none;
      }

      .cls-5 {
        isolation: isolate;
      }

      .cls-6 {
        mix-blend-mode: screen;
      }

      .cls-3 {
        mix-blend-mode: multiply;
        opacity: .8;
      }
    </style>
  </defs>
  <g class="cls-5">
    <g id="oesophagus">
      <g>
        <g>
          <path class="cls-2" d="M958.74,163.28c112.52-11.46,147.52-14.04,260.91-10.59,13.25.41,26.49,1.1,39.71,2.13,5.91.46,11.82,1,17.73,1.6,3.92.41,7.84.84,11.76,1.3,3.07.37,15.54.42,1.5.16,12.63.23,26.34,4.2,38.68,6.78,14.1,2.94,28.08,6.41,41.9,10.44,12.01,3.5,23.89,7.43,35.6,11.8,3.1,1.16,6.19,2.34,9.27,3.56.51.2,12.57,5.31,4.73,1.88-7.88-3.44,4.2,1.92,4.68,2.14,3.67,1.67,7.32,3.38,10.95,5.13,26.22,12.69,51.28,27.77,74.81,44.94,2.33,1.7,4.63,3.43,6.95,5.15-10.06-7.48,1.67,1.37,3.06,2.5,5.79,4.69,11.47,9.5,17.06,14.43,10.68,9.42,20.96,19.27,30.95,29.42,8.73,8.86,17.22,17.96,25.47,27.28,8.41,9.5,19.55,19.72,25.71,30.85-5.39-9.73-3.8-5-1.69-2.18,2.14,2.87,4.31,5.73,6.43,8.62,3.51,4.79,6.96,9.63,10.34,14.51,7.03,10.15,13.77,20.49,20.22,31.01,12.39,20.22,23.69,41.12,33.85,62.55,2.46,5.18,4.85,10.4,7.17,15.64,1.16,2.62,2.24,5.27,3.43,7.87,3.19,7-5.01-12.48-.71-1.6,4.62,11.69,9.19,23.38,13.31,35.26,7.51,21.59,13.99,43.53,19.52,65.71,5.85,23.45,10.63,47.16,14.46,71.01.92,5.72,1.74,11.45,2.6,17.19.75,5.07-1.67,5.39-.49-3.75-.39,3.01.94,7.36,1.3,10.4,1.39,11.61,2.56,23.24,3.55,34.89,8.42,99.53,3.01,199.82-8.61,298.86-.72,6.18-1.48,12.37-2.25,18.55-.39,3.1-.78,6.19-1.18,9.29-.12.98-1.65,13.32-.52,4.09,1.13-9.22-.43,3.13-.57,4.11-.34,2.48-.69,4.96-1.04,7.44-1.05,7.46-2.14,14.91-3.24,22.36-3.9,26.18-8.16,52.31-12.67,78.4-8.84,51.14-18.67,102.1-28.86,152.98-38.73,193.57-86.88,388.98-93,587.14-8.36,270.7,73.92,531.32,159.66,784.64,10.48,30.97,113.01,267.17,123.43,298.17,8.83,26.26,36.96,46.24,65.29,37.07,26.12-8.46,46.55-37.12,37.07-65.29-43.24-128.57-180.48-461.87-216.11-592.84-17.54-64.47-32.7-129.62-44-195.49-2.73-15.9-5.16-31.84-7.48-47.8-2.31-15.92,1.28,10.88-.69-5.1-.4-3.21-.81-6.42-1.2-9.63-1.18-9.65-2.26-19.3-3.25-28.97-3.48-34.08-5.75-68.29-6.67-102.54-1.37-51.3.53-102.53,5.22-153.62,2.17-23.63,4.94-47.19,7.95-70.72,1.57-12.27-1.79,12.7-.05.42.32-2.29.63-4.58.96-6.87.81-5.75,1.64-11.5,2.49-17.24,1.89-12.77,3.88-25.53,5.95-38.27,16.35-100.63,37.5-200.4,57.8-300.28,41.72-205.33,84.2-415.89,74.46-626.5-4.58-99.06-20.72-199.05-56.97-291.71-38.55-98.52-96.12-187.69-172.1-261.63-87.34-84.99-198.13-138.42-318.62-155.31-116.25-16.3-154.56-19.72-270.61-7.02-28.43,3.11-56.86,6.28-85.32,9.18-27.54,2.8-54.45,22.4-53.08,53.08,1.18,26.35,23.5,56.09,53.08,53.08h0Z"/>
          <g>
            <path class="cls-4" d="M1749.1,679.74c-.16-1.09-.33-2.17-.49-3.26-.12,1.74.19,3.79.58,5.82.07-.61.07-1.44-.09-2.56Z"/>
            <path class="cls-4" d="M1748.6,675.99c-.01.12-.02.2-.03.31,0,.06.02.12.03.18.01-.16-.02-.34,0-.49Z"/>
            <path class="cls-2" d="M1420.54,192.33c-5.29-2.31-1.57-.65,1.58.76,1.48.61,1.79.71-1.58-.76Z"/>
            <path class="cls-2" d="M1515.6,247.97c.77.58,1.55,1.15,2.32,1.72-1-.74-1.72-1.28-2.32-1.72Z"/>
            <path class="cls-2" d="M1838.16,659.34c-.02.13-.02.21-.03.34,0,.07.02.13.03.2.02-.17-.02-.37,0-.54Z"/>
            <path class="cls-2" d="M1616.56,348.53c1.31,1.85,2.55,3.72,3.61,5.63-2.92-5.27-3.76-6.24-3.61-5.63Z"/>
            <path class="cls-2" d="M1291.27,157.89c4.2.2,10.08.2,0,0h0Z"/>
            <path class="cls-2" d="M1699.07,490.23c.28.65.55,1.3.85,1.94,3.15,6.91-4.78-11.94-.85-1.94Z"/>
            <path class="cls-2" d="M1748.6,676.48c-.01-.06-.02-.12-.03-.18-.83,6.82.37,8.11.61,6-.39-2.03-.71-4.08-.58-5.82Z"/>
            <path class="cls-2" d="M1838.79,666.26c.08-.66.08-1.58-.1-2.81-.18-1.19-.36-2.38-.54-3.58-.13,1.9.21,4.16.64,6.38Z"/>
            <path class="cls-3" d="M1807.54,1840.84c.01-.08.02-.16.03-.24.01-.07.02-.15.03-.23,1.73-13.46-1.96,13.94-.06.46Z"/>
            <path class="cls-3" d="M1805.65,2243.92c-1.43-9.56,1.32,10.86,0,0h0Z"/>
            <path class="cls-2" d="M1838.79,666.26c-.43-2.22-.77-4.48-.64-6.38,0-.07-.02-.13-.03-.2-.91,7.48.4,8.9.67,6.58Z"/>
            <path class="cls-3" d="M1838.79,666.26c-.43-2.22-.77-4.48-.64-6.38,0-.07-.02-.13-.03-.2-.91,7.48.4,8.9.67,6.58Z"/>
            <path class="cls-2" d="M1336.37,90.86c4.61.21,11.03.21,0,0h0Z"/>
            <path class="cls-3" d="M1336.37,90.86c4.61.21,11.03.21,0,0h0Z"/>
            <path class="cls-2" d="M1718.98,2120.12c-1.3-8.7,1.2,9.91,0,0h0Z"/>
            <path class="cls-3" d="M1718.98,2120.12c-1.3-8.7,1.2,9.91,0,0h0Z"/>
            <path class="cls-2" d="M1949.92,3024.36c26.12-8.45,46.55-37.12,37.07-65.29-43.25-128.57-180.49-461.87-216.12-592.83-17.54-64.47-32.7-129.62-44-195.49-2.73-15.9-5.16-31.84-7.48-47.8-.17-1.19-.3-2.07-.41-2.82,1.2,9.91-1.3-8.7,0,0-.08-.64-.17-1.37-.28-2.28-.4-3.21-.81-6.42-1.21-9.63-1.17-9.65-2.26-19.3-3.24-28.97-3.48-34.08-5.75-68.3-6.67-102.54-1.37-51.3.53-102.53,5.22-153.62,2.16-23.56,4.92-47.06,7.93-70.52-.01.07-.02.15-.03.22-1.73,12.28,1.63-12.69.05-.42,0,.07-.02.13-.02.2.31-2.22.61-4.43.93-6.64.81-5.75,1.64-11.5,2.49-17.24,1.89-12.77,3.88-25.53,5.95-38.27,16.35-100.63,37.5-200.4,57.8-300.28,41.72-205.33,84.2-415.89,74.46-626.5-4.58-99.06-20.72-199.06-56.97-291.71-38.55-98.52-96.12-187.69-172.1-261.63-87.34-84.98-198.13-138.41-318.62-155.31-116.25-16.3-154.57-19.72-270.61-7.02-28.44,3.12-56.87,6.28-85.32,9.18-20.48,2.08-40.59,13.47-49,31.78,123.37-12.4,224.79-7.5,348.02-3.75,14.54.45,29.07,1.2,43.57,2.34,6.49.51,12.98,1.09,19.45,1.75,4.31.44,8.61.92,12.91,1.43.62.07,1.6.14,2.68.19,11.03.21,4.61.21,0,0-.35,0-.64-.02-1.03-.02,13.86.26,28.89,4.61,42.44,7.44,15.47,3.23,30.81,7.03,45.98,11.46,13.17,3.85,26.21,8.15,39.06,12.95,3.41,1.27,6.8,2.57,10.18,3.9.32.13,4.77,2.01,6.92,2.9-3.46-1.54-7.55-3.38-1.74-.84,3.69,1.61,3.36,1.5,1.74.84,1.69.75,3.22,1.44,3.39,1.51,4.03,1.83,8.04,3.7,12.02,5.63,28.77,13.92,56.26,30.47,82.08,49.31,1.68,1.22,3.33,2.47,5,3.7.67.5,1.5,1.11,2.63,1.95-.87-.65-1.75-1.3-2.63-1.95-5.82-4.31,4.61,3.58,5.98,4.69,6.35,5.14,12.59,10.43,18.72,15.83,11.72,10.33,23,21.15,33.96,32.28,9.58,9.73,18.9,19.71,27.95,29.93,7.64,8.64,17.3,17.83,24.25,27.67-.16-.67.76.4,3.96,6.18-1.16-2.09-2.52-4.14-3.96-6.18.14.57,1.04,2.37,2.1,3.78,2.35,3.15,4.73,6.29,7.06,9.46,3.85,5.26,7.64,10.56,11.35,15.92,7.71,11.13,15.11,22.48,22.18,34.02,13.6,22.19,25.99,45.12,37.14,68.63,2.7,5.69,5.32,11.41,7.87,17.16.96,2.16,1.89,4.34,2.83,6.51-4.32-10.97,4.39,9.72.93,2.13-.32-.71-.62-1.42-.93-2.13.05.14.09.23.15.37,5.07,12.83,10.07,25.66,14.61,38.69,8.23,23.69,15.34,47.76,21.42,72.1,6.41,25.73,11.66,51.74,15.87,77.92.8,5.02,1.53,10.05,2.28,15.08.02-.13.02-.21.03-.34-.02.17.01.37,0,.54.18,1.19.36,2.38.54,3.58.18,1.23.18,2.14.1,2.81.31,1.6.63,3.16.79,4.48,1.52,12.74,2.81,25.5,3.89,38.29,9.24,109.2,3.3,219.25-9.44,327.92-.8,6.79-1.62,13.57-2.47,20.35-.43,3.4-.86,6.79-1.3,10.19-.14,1.08-1.81,14.61-.57,4.49,1.24-10.12-.47,3.43-.62,4.5-.37,2.72-.75,5.45-1.14,8.17-1.15,8.18-2.34,16.36-3.56,24.53-4.28,28.73-8.95,57.4-13.9,86.02-9.7,56.11-20.49,112.03-31.67,167.86-42.49,212.4-95.33,426.81-102.04,644.24-9.17,297.02,81.11,582.99,175.19,860.94,5.5,16.24,34.05,83.88,63.62,153.81,10.45,4.8,22.37,6.17,34.34,2.3Z"/>
            <path class="cls-3" d="M1949.92,3024.36c26.12-8.45,46.55-37.12,37.07-65.29-43.25-128.57-180.49-461.87-216.12-592.83-17.54-64.47-32.7-129.62-44-195.49-2.73-15.9-5.16-31.84-7.48-47.8-.17-1.19-.3-2.07-.41-2.82,1.2,9.91-1.3-8.7,0,0-.08-.64-.17-1.37-.28-2.28-.4-3.21-.81-6.42-1.21-9.63-1.17-9.65-2.26-19.3-3.24-28.97-3.48-34.08-5.75-68.3-6.67-102.54-1.37-51.3.53-102.53,5.22-153.62,2.16-23.56,4.92-47.06,7.93-70.52-.01.07-.02.15-.03.22-1.73,12.28,1.63-12.69.05-.42,0,.07-.02.13-.02.2.31-2.22.61-4.43.93-6.64.81-5.75,1.64-11.5,2.49-17.24,1.89-12.77,3.88-25.53,5.95-38.27,16.35-100.63,37.5-200.4,57.8-300.28,41.72-205.33,84.2-415.89,74.46-626.5-4.58-99.06-20.72-199.06-56.97-291.71-38.55-98.52-96.12-187.69-172.1-261.63-87.34-84.98-198.13-138.41-318.62-155.31-116.25-16.3-154.57-19.72-270.61-7.02-28.44,3.12-56.87,6.28-85.32,9.18-20.48,2.08-40.59,13.47-49,31.78,123.37-12.4,224.79-7.5,348.02-3.75,14.54.45,29.07,1.2,43.57,2.34,6.49.51,12.98,1.09,19.45,1.75,4.31.44,8.61.92,12.91,1.43.62.07,1.6.14,2.68.19,11.03.21,4.61.21,0,0-.35,0-.64-.02-1.03-.02,13.86.26,28.89,4.61,42.44,7.44,15.47,3.23,30.81,7.03,45.98,11.46,13.17,3.85,26.21,8.15,39.06,12.95,3.41,1.27,6.8,2.57,10.18,3.9.32.13,4.77,2.01,6.92,2.9-3.46-1.54-7.55-3.38-1.74-.84,3.69,1.61,3.36,1.5,1.74.84,1.69.75,3.22,1.44,3.39,1.51,4.03,1.83,8.04,3.7,12.02,5.63,28.77,13.92,56.26,30.47,82.08,49.31,1.68,1.22,3.33,2.47,5,3.7.67.5,1.5,1.11,2.63,1.95-.87-.65-1.75-1.3-2.63-1.95-5.82-4.31,4.61,3.58,5.98,4.69,6.35,5.14,12.59,10.43,18.72,15.83,11.72,10.33,23,21.15,33.96,32.28,9.58,9.73,18.9,19.71,27.95,29.93,7.64,8.64,17.3,17.83,24.25,27.67-.16-.67.76.4,3.96,6.18-1.16-2.09-2.52-4.14-3.96-6.18.14.57,1.04,2.37,2.1,3.78,2.35,3.15,4.73,6.29,7.06,9.46,3.85,5.26,7.64,10.56,11.35,15.92,7.71,11.13,15.11,22.48,22.18,34.02,13.6,22.19,25.99,45.12,37.14,68.63,2.7,5.69,5.32,11.41,7.87,17.16.96,2.16,1.89,4.34,2.83,6.51-4.32-10.97,4.39,9.72.93,2.13-.32-.71-.62-1.42-.93-2.13.05.14.09.23.15.37,5.07,12.83,10.07,25.66,14.61,38.69,8.23,23.69,15.34,47.76,21.42,72.1,6.41,25.73,11.66,51.74,15.87,77.92.8,5.02,1.53,10.05,2.28,15.08.02-.13.02-.21.03-.34-.02.17.01.37,0,.54.18,1.19.36,2.38.54,3.58.18,1.23.18,2.14.1,2.81.31,1.6.63,3.16.79,4.48,1.52,12.74,2.81,25.5,3.89,38.29,9.24,109.2,3.3,219.25-9.44,327.92-.8,6.79-1.62,13.57-2.47,20.35-.43,3.4-.86,6.79-1.3,10.19-.14,1.08-1.81,14.61-.57,4.49,1.24-10.12-.47,3.43-.62,4.5-.37,2.72-.75,5.45-1.14,8.17-1.15,8.18-2.34,16.36-3.56,24.53-4.28,28.73-8.95,57.4-13.9,86.02-9.7,56.11-20.49,112.03-31.67,167.86-42.49,212.4-95.33,426.81-102.04,644.24-9.17,297.02,81.11,582.99,175.19,860.94,5.5,16.24,34.05,83.88,63.62,153.81,10.45,4.8,22.37,6.17,34.34,2.3Z"/>
            <path class="cls-2" d="M1720.7,1752.77c.01-.07.02-.15.03-.22,0-.07.02-.13.02-.2,1.57-12.27-1.79,12.71-.05.42Z"/>
            <path class="cls-3" d="M1720.7,1752.77c.01-.07.02-.15.03-.22,0-.07.02-.13.02-.2,1.57-12.27-1.79,12.71-.05.42Z"/>
            <path class="cls-2" d="M1783.81,455.51c.31.71.61,1.42.93,2.13,3.46,7.58-5.25-13.1-.93-2.13Z"/>
            <path class="cls-3" d="M1783.81,455.51c.31.71.61,1.42.93,2.13,3.46,7.58-5.25-13.1-.93-2.13Z"/>
            <path class="cls-2" d="M1693.27,300.03c1.44,2.03,2.8,4.09,3.96,6.18-3.2-5.78-4.12-6.85-3.96-6.18Z"/>
            <path class="cls-3" d="M1693.27,300.03c1.44,2.03,2.8,4.09,3.96,6.18-3.2-5.78-4.12-6.85-3.96-6.18Z"/>
            <path class="cls-2" d="M1582.41,189.63c.87.65,1.75,1.3,2.63,1.95-1.13-.84-1.96-1.46-2.63-1.95Z"/>
            <path class="cls-3" d="M1582.41,189.63c.87.65,1.75,1.3,2.63,1.95-1.13-.84-1.96-1.46-2.63-1.95Z"/>
            <path class="cls-2" d="M1478.19,128.64c-5.82-2.54-1.72-.71,1.74.84,1.62.67,1.95.78-1.74-.84Z"/>
            <path class="cls-3" d="M1478.19,128.64c-5.82-2.54-1.72-.71,1.74.84,1.62.67,1.95.78-1.74-.84Z"/>
          </g>
          <path class="cls-1" d="M1935.48,3028.45c-24.38,0-45.24-18.9-52.54-40.59-5.23-15.54-34.2-84.05-62.22-150.31-27.53-65.1-55.99-132.41-61.22-147.86-88.86-262.52-167.94-520.13-159.76-785.26,5.06-163.62,39.14-327.32,72.11-485.62,6.95-33.39,14.15-67.93,20.92-101.8,12.23-61.14,21.13-108.31,28.84-152.95,4.8-27.73,8.94-53.36,12.67-78.36,1.11-7.44,2.19-14.88,3.24-22.34l1.41-10.36c.19-1.48.34-2.62.47-3.49.07-.6.11-.91.11-1h.03l1.28-10.06c.77-6.18,1.53-12.35,2.25-18.54,13.23-112.85,16.04-210.5,8.6-298.51-.99-11.73-2.19-23.46-3.54-34.83-.07-.57-.17-1.18-.29-1.82l-.04-.02c-.52-.32-1.9-1.19-1.02-8.5-.66-4.48-1.32-8.94-2.03-13.41-3.9-24.25-8.75-48.08-14.44-70.87-5.59-22.41-12.14-44.47-19.47-65.56-4.14-11.9-8.81-23.84-13.23-35.07-.43-.97-.84-1.94-1.26-2.9-.49-1.15-.98-2.29-1.48-3.42-2.32-5.23-4.7-10.43-7.16-15.6-10.13-21.37-21.49-42.36-33.76-62.38-6.37-10.39-13.15-20.79-20.16-30.93-3.37-4.86-6.82-9.7-10.32-14.47-1.4-1.9-2.81-3.79-4.24-5.68l-2.19-2.93c-.74-.99-1.76-2.51-2.14-3.83-4.22-5.89-9.55-11.56-14.75-17.09-2.44-2.59-4.84-5.13-7.04-7.63-8.17-9.23-16.72-18.39-25.4-27.21-10.67-10.84-20.76-20.43-30.86-29.33-5.52-4.86-11.23-9.7-17-14.38-.46-.38-2.14-1.66-3.73-2.88-1.28-.98-2.22-1.7-2.88-2.25-.16-.12-.27-.19-.32-.22v-.02c-.99-.75-1.99-1.49-3.01-2.23-23.51-17.15-48.59-32.22-74.54-44.78-3.61-1.75-7.25-3.45-10.91-5.11l-1.46-.65c-.82-.37-1.54-.69-2.19-.98-.95-.37-2.16-.89-3.72-1.53-1.02-.43-1.82-.77-1.96-.82-3.07-1.21-6.16-2.39-9.25-3.54-11.5-4.29-23.44-8.25-35.48-11.76-13.53-3.95-27.58-7.44-41.78-10.41-2.91-.61-5.9-1.3-8.93-1.99-8.23-1.89-16.69-3.83-24.81-4.5-1.99-.04-4.51-.2-6.29-.42-3.9-.46-7.81-.89-11.73-1.29-5.88-.61-11.78-1.13-17.68-1.6-12.69-1-26.02-1.71-39.63-2.13-89.95-2.75-103.17-6.74-191.23,3.06-22.77,2.54-46.3,5.16-69.44,7.52l-.18-1.76.18,1.76c-12.1,1.21-23.78-2.68-33.78-11.32-12.39-10.69-20.52-27.34-21.24-43.44-1.43-31.9,27.09-52.1,54.66-54.92,24.14-2.46,48.25-5.1,72.36-7.76l12.94-1.42c118.32-12.94,156.18-9.06,271.05,7.02,121.93,17.11,232.45,70.98,319.61,155.8,74.89,72.88,132.94,161.12,172.51,262.26,33.25,84.98,51.93,180.58,57.09,292.27,9.81,212.07-33.05,422.98-74.5,626.94-3.05,15.01-6.12,30.01-9.19,45.02-17.06,83.44-34.71,169.72-48.6,255.19-2.07,12.73-4.06,25.49-5.95,38.25-.85,5.74-1.68,11.48-2.49,17.23l-.94,6.76c-3.49,27.27-6,49.62-7.9,70.31-4.79,52.08-6.53,103.7-5.21,153.41.89,33.35,3.13,67.81,6.66,102.42.98,9.65,2.06,19.3,3.24,28.94l1.21,9.63c.11.85.2,1.61.28,2.27.12.78.25,1.7.41,2.79,2.71,18.69,5.09,33.86,7.47,47.76,10.54,61.44,24.92,125.33,43.96,195.32,21.64,79.54,81.16,234.71,133.66,371.62,33.66,87.78,65.46,170.68,82.42,221.11,4.13,12.29,3.07,25.24-3.08,37.45-7.06,14.01-20.19,25.26-35.12,30.1-5.07,1.64-10.09,2.4-14.97,2.4ZM1742.18,1055.65l-1.14,8.22c-1.05,7.46-2.13,14.92-3.24,22.36-3.73,25.03-7.87,50.68-12.67,78.45-7.73,44.66-16.63,91.86-28.87,153.03-6.78,33.89-13.97,68.43-20.93,101.84-32.94,158.15-67,321.69-72.04,485.01-8.17,264.55,70.82,521.81,159.57,784.02,5.19,15.33,33.63,82.58,61.13,147.62,28.04,66.31,57.04,134.88,62.31,150.54,8.22,24.44,34.69,45.14,63.07,35.95,14.06-4.55,26.41-15.13,33.05-28.31,5.71-11.35,6.71-23.36,2.89-34.73-16.94-50.36-48.72-133.24-82.38-220.97-52.53-136.99-112.08-292.25-133.77-371.96-19.08-70.1-33.48-134.11-44.04-195.66-2.36-13.76-4.71-28.77-7.39-47.18-.07-.2-.12-.42-.18-.66h0s0-.04,0-.06c-.12-.6-.22-1.34-.35-2.28-.16-1.16-.28-2.05-.32-2.73,0-.02,0-.03,0-.04h0c-.02-.23-.02-.43,0-.61l-1.14-9.05c-1.18-9.66-2.26-19.33-3.25-29.01-3.54-34.69-5.78-69.24-6.68-102.68-1.33-49.86.43-101.61,5.23-153.83,1.82-19.78,4.19-41.07,7.44-66.72,0-.09,0-.17.01-.27h-.04c.01-.07.04-.22.07-.47.07-.78.21-1.82.39-3.2.18-1.3.31-2.29.45-3.04.03-.25.05-.4.05-.47h.04c.02-.05.03-.12.04-.18l.4-2.9c.81-5.75,1.64-11.51,2.49-17.25,1.9-12.79,3.88-25.55,5.96-38.31,13.9-85.54,31.55-171.86,48.62-255.34,3.07-15.01,6.14-30,9.19-45,41.41-203.75,84.22-414.44,74.43-626.07-5.14-111.29-23.74-206.53-56.85-291.15-39.39-100.66-97.15-188.48-171.69-261.01-86.62-84.29-196.45-137.82-317.63-154.82-114.47-16.06-152.09-19.94-270.18-7.02l-12.94,1.42c-24.12,2.65-48.25,5.3-72.39,7.76-26.61,2.71-52.84,21.18-51.49,51.24.68,15.16,8.35,30.84,20.03,40.92,6.44,5.56,17.07,11.89,31.1,10.47,23.12-2.35,46.65-4.97,69.41-7.51,88.18-9.81,101.49-5.87,191.73-3.08,13.66.42,27.05,1.14,39.79,2.14,5.93.46,11.86.99,17.77,1.6,3.93.4,7.86.84,11.79,1.31.55.06,1.43.12,2.4.16,2.24.04,3.71.08,4.7.14.33.01.55.02.63,0v.05c.66.07,1.01.17,1.23.32,7.47.86,15.08,2.61,22.5,4.31,3.01.69,5.97,1.37,8.86,1.97,14.28,2.99,28.43,6.51,42.04,10.48,12.12,3.54,24.14,7.53,35.73,11.84,3.12,1.17,6.21,2.35,9.31,3.57.1.04.71.3,1.55.64.2.04.42.11.67.19l.02-.04c.06.04.2.1.41.2.57.22,1.28.53,2.15.91.98.43,1.75.77,2.33,1.07.07.03.12.05.16.06h0c.07.05.14.09.21.13.18.09.36.16.53.24l1.48.66c3.68,1.67,7.35,3.39,10.99,5.15,26.14,12.65,51.4,27.82,75.09,45.09,1.65,1.2,3.28,2.42,4.92,3.64l1.88,1.41c.05.04.11.08.16.12l-.07.08c1.41,1.09,2.76,2.12,3.17,2.46,5.81,4.72,11.57,9.58,17.12,14.48,10.16,8.96,20.31,18.6,31.04,29.5,8.74,8.87,17.33,18.08,25.53,27.35,2.19,2.47,4.56,4.99,6.97,7.55,5.18,5.51,10.5,11.16,14.81,17.12.71.53,1.71,2.07,4.16,6.49h-.03s.39.53.39.53c1.43,1.9,2.85,3.8,4.26,5.71,3.52,4.81,6.98,9.66,10.37,14.55,7.05,10.19,13.87,20.65,20.28,31.1,12.34,20.13,23.75,41.23,33.94,62.71,2.46,5.2,4.86,10.42,7.19,15.68.34.76.66,1.51.99,2.27.48.55.91,1.55,1.53,3.01,1.24,2.92,1.86,4.38,1.87,5.22,3.95,10.06,8.03,20.63,11.7,31.18,7.37,21.2,13.95,43.35,19.56,65.86,5.71,22.88,10.58,46.82,14.49,71.15.74,4.61,1.42,9.22,2.1,13.83l.5,3.38c.16,1.11.21,2.06.14,2.84.03.14.05.27.08.41.25,1.23.47,2.41.59,3.45,1.37,11.41,2.56,23.17,3.56,34.94,7.47,88.26,4.65,186.13-8.6,299.22-.73,6.19-1.48,12.37-2.26,18.57l-1.58,12.48c-.11.91-.21,1.69-.3,2.35l-.24,1.92h-.06Z"/>
        </g>
        <g class="cls-6">
          <path class="cls-2" d="M1240.61,129.94c90.07,2.14,179.8,27.82,258.15,73.51,78.29,46.07,142.77,115.19,184.63,196.08,10.58,20.13,19.63,41.25,27.35,62.52,7.8,20.98,16.32,41.79,24.61,62.82,8.25,21.04,16.25,42.31,22.68,64.24,6.4,22.08,10.93,44.14,15.51,66.35,17.76,89.11,21.84,180.47,16.05,270.9-6.8,90.54-25.31,179.47-42.95,267.64l-53.8,264.97c-17.91,88.3-35.25,176.71-49.86,265.57-7.4,44.4-14.25,88.93-18.85,133.7-4.65,44.69-8.31,89.88-3.26,134.76-6.21-44.75-3.7-90.19-.19-135.08,3.46-45,9.18-89.78,15.45-134.45,13.22-89.25,29.4-177.99,46.02-266.6,16.47-88.65,34.64-176.94,51.85-265.39,17.29-88.51,35.14-176.7,41.48-266.09,6.15-89.31,2.53-179.61-14.56-267.47-4.41-21.92-8.87-44.09-14.93-65.33-6.14-21.36-13.92-42.35-22.02-63.3-8.1-20.96-16.68-41.84-24.32-63.21-7.35-21.2-15.82-41.71-25.91-61.63-39.83-79.78-102.09-148.45-178.55-195.13-76.1-47.03-164.63-74.98-254.59-79.39Z"/>
        </g>
      </g>
    </g>
  </g>
</svg>